<svg xmlns="http://www.w3.org/2000/svg" preserveAspectRatio="xMidYMid" width="110" height="98" viewBox="0 0 110 98"><path d="M109.398 64.63c-4.008 14.07-9.55 17.14-14.07 17.14-6.734 0-12.276-3.582-10.145-21.06v-.257c1.79-14.324 3.07-18.416-1.96-18.416-4.35 0-12.28 4.774-15.518 30.864 0 .172 0 .342-.086.513l-.256 1.876c-.512 6.223-3.496 6.734-6.992 6.393-2.728-.255-1.364-1.45-.597-7.76.768-6.65 3.496-27.197 4.775-37.855.34-2.728.767-5.2 1.194-7.418-10.147.17-22.51-2.13-36.92-8.44C5.55 10.063-.59 24.814 4.355 30.526c1.45 1.62 4.52 1.28 5.97-2.558 1.278-3.666 4.348-2.558 5.115-.17 1.363 4.092-7.333 11.34-13.472 4.348-6.48-7.418 3.154-25.323 28.22-14.24 14.24 6.31 26.262 8.528 36.067 8.272C70.775 5.288 79.982.002 88.85.002c18.33 0 11.766 23.618-15.518 27.966-.426 2.473-.682 5.116-1.11 8.1-.595 4.775-1.278 10.06-2.045 15.86C74.61 41.695 80.41 39.392 84.33 39.392c6.736 0 10.658 3.496 8.527 21.06v.256c-1.79 14.238-1.535 18.33 3.58 18.33 3.24 0 7.333-2.643 10.573-15.006 1.11-4.092 3.58-3.75 2.388.597zM88.082 2.73c-7.247 0-11.254 5.287-14.324 22.766C96.948 21.488 102.662 2.73 88.082 2.73zM45.11 56.36l.34-.17c1.024-10.402 0-14.153-6.308-14.153-4.434 0-8.612.596-9.21 5.115-.17 1.535 1.025 2.984 3.24 3.58 2.9.854 1.62 6.822-2.983 6.822-4.18 0-5.372-3.666-5.03-6.48.68-5.968 6.393-11.68 15.175-11.68s14.58 2.898 12.534 19.78c0 .256-.172.597-.172.853-.085 1.193-.255 2.472-.426 3.837l-.597 5.115c-1.79 14.323-1.535 26.175 13.813 26.175 7.758 0 16.03-7.333 17.65-9.805 1.534-2.303 3.75-1.79 2.045.767-2.728 4.007-12.107 11.766-20.804 11.766-14.41 0-20.55-8.1-20.805-21.145-2.984 2.984-6.65 5.03-10.572 5.03-4.945 0-10.914-3.07-10.232-8.867.77-6.052 6.993-10.997 22.34-16.54zM34.623 79.297c6.65 0 8.782-5.798 10.402-18.843l.256-2.217c-.085.086-.17.086-.255.086-10.146 3.922-14.75 9.037-15.347 14.324-.597 4.518 2.302 6.65 4.945 6.65z" id="path-1" class="cls-2" fill-rule="evenodd"/></svg>