<svg xmlns="http://www.w3.org/2000/svg" viewBox="0 0 143.4 143.4"><path d="M0 71.3C.1 31.7 32.3-.1 72.2 0c39.6.1 71.3 32.4 71.2 72.4-.1 39.6-32.4 71.2-72.5 71C31.6 143.2-.1 111 0 71.3zm75.7-49.6c-.9-.5-1.6-.5-2.2-.2-2.5 1.5-4 4-5.5 6.3-5.5 8.8-9.8 18.2-13.3 27.9-.8 2.2-1.6 3.6-4.3 3.9-14.2 1.6-26.6 15.2-27.8 32.2-.3 4.8.8 9.3 4 13 3.8 4.5 9.1 4.4 12.9-.1 1.9-2.3 3.2-5.1 4.4-7.8 3.8-8.5 6.1-17.6 8.9-26.5 2.5-8.2 3-8.5 11-5.5l.9.3c2.7.9 4.1 2.4 3.8 5.5-.3 3.3-.2 6.7 0 10 .2 3.8.4 7.7 2.2 11.2 2.6 5.1 8.4 7.6 13.5 5.9 1.6-.6 3-1.6 3.1-3.5 0-.7-.1-1.4-.7-1.7-1.7-.8-2.8.2-3.9 1.2-.2.2-.5.5-.8.6-2.7 1.7-5.1 1.1-6.8-1.6-1.3-2.1-1.2-4.5-1.1-6.8.5-19.5 1-38.9 2-58.4.1-1.9.6-4.1-.3-5.9zm10.7 53.6c-.7-3.7-.1-5.9 1.1-8.2 3.2-5.9 5.4-12.1 7-18.6 1.4-5.7 2.1-11.5 1.4-17.3-.4-3.7-2.5-4.6-5.5-2.3-2 1.5-3.4 3.7-4.5 5.9-2.4 4.9-3.3 10.1-3.6 15.4-.7 11.7-.2 23.3 0 35 0 .8-.1 1.7.8 2.2 2.7-.7 2.8-.6 3.4-2.5 1.2-3.5 2.3-6.9 3.5-10.4 1.1-3 2.3-5.9 4.2-8.5.7-1 1.5-1.9 2.8-1.7 1.6.3 2 1.6 2.2 3 .2 1.5.3 3 .3 4.5 0 2.8-.3 5.7 0 8.5.5 6.1 6.1 8.9 11.2 5.5 4-2.6 6.6-6.5 8.4-10.9.5-1.1.8-2.5-.5-3.6-4.3 3.2-5.2 10.4-12.1 10.2-1.2-2.4-1.3-4.3-1-6.3.5-3.2.2-6.3-.7-9.4-1-3.8-4.9-6.1-8.5-5.1-2.7.7-4 2.8-5.2 5-1.3 2.7-2.1 6-4.7 9.6zm26.8-32.4c-2.3 1.2-3.6-.9-5.4-.1.7 1.8 3.2 1.5 3.4 3.4-.2 1.8-2.3 2.6-2.1 4.7 1.9-.7 2.5-2.6 4.3-2.9 1.6.7 1.5 2.9 3.2 3.6 1-1.9-1.5-3.3-1.1-4.3 1.5-2.5 3.9-1.6 4.9-3.4-1.7-1-3.4.9-4.4 0-1.5-1.7-.2-3.4-1.5-4.9-.4 1.5-.9 2.9-1.3 3.9z"/><path d="M52 63.4c-3.8 12.9-7.5 25.1-13.8 36.3-1.2 2.1-2.8 4.6-5.7 4.2-3-.4-3.4-3.4-4-5.8-2.5-10 3.8-26.2 12.5-31.9 3-2 6.3-3.5 11-2.8zM68.9 63.2c-4.5-1.8-8.2-2.8-12.6-3.2 3.1-10.2 8.3-18.7 13.8-27 .5 10-.7 19.7-1.2 30.2zM86.5 65.1c-.7-9.6-.8-19.2 1.7-28.5.3-1.3.9-2.7 2.5-2.7 1.7 0 2.6 1.4 2.9 2.9.3 1.3.6 2.6.5 3.9-1 8.6-3.8 16.6-7.6 24.4z"/></svg>