<svg xmlns="http://www.w3.org/2000/svg" preserveAspectRatio="xMidYMid" width="100" height="89" viewBox="0 0 100 89"><path d="M99.133 24.133l-5.783 1.652 2.243 5.43-1.476.884-2.832-5.017L86.8 31.39l-1.18-1.06 3.835-4.9-4.897-2.655.65-1.475 5.487 1.888 1.298-5.9 1.652.117-.472 5.96 5.665-.826.295 1.593zm-14.72 36.85c1.316 0 2.45-.29 3.398-.87.95-.578 1.897-1.473 2.845-2.685 1.157-1.474 2.133-2.817 2.923-4.03.948-1.42 2.263-3.16 3.95-5.213l.08 5.767c-1.846 3.634-3.663 6.452-5.452 8.453-2.898 3.16-5.61 4.61-8.137 4.345-2.162-.21-3.754-.737-4.78-1.58-1.028-.842-1.7-2.027-2.015-3.555-.212-.842-.316-1.896-.316-3.16 0-.79.024-1.395.078-1.817.104-1.685.158-3.133.158-4.345 0-3.58-.265-6.004-.79-7.268-.423-.948-.976-1.422-1.66-1.422-.79 0-1.554.527-2.29 1.58-1.422 1.95-2.872 4.872-4.345 8.77-1 2.58-2.132 5.898-3.396 9.953-.474 1.633-.74 2.634-.79 3.002-.74.37-1.66.553-2.765.553-.424 0-.898-.052-1.423-.157l-.395-21.33v-3.95c0-6.53.264-11.876.79-16.037.894-6.636 2.632-11.64 5.214-15.01 1.473-2.054 2.79-3.318 3.95-3.792.736-.316 1.394-.474 1.975-.474 1.265 0 2.106.817 2.53 2.45.366 1.58.552 3.29.552 5.134 0 2.054-.212 4.61-.632 7.663-.844 5.846-2.503 11.85-4.977 18.012-1.213 3-2.686 6.003-4.424 9.005-.16.21-.238 1.238-.238 3.08l-.08 1.028.08 1.027v1.264c.79-1.474 1.842-3.818 3.16-7.03 1.157-2.897 2.37-5.11 3.634-6.637 1.264-1.474 2.923-2.212 4.977-2.212 1.526 0 2.962.448 4.305 1.343 1.343.896 2.277 2.054 2.805 3.476.578 1.79.87 4.45.87 7.98 0 .684-.03 1.184-.08 1.5-.054.422-.107.908-.158 1.46-.054.554-.08 1.147-.08 1.78 0 .368.052.92.16 1.658.05.632.315 1.396.79 2.29zm-19.196-18.17c1.79-4.476 3.343-9.058 4.66-13.746 1.053-3.74 1.58-6.978 1.58-9.717 0-1.264-.106-2.317-.315-3.16-.423-1.58-1.318-2.528-2.686-2.844-.79-.158-1.45.395-1.975 1.66-1 2.527-1.712 6.662-2.132 12.402-.37 5.004-.553 9.902-.553 14.694-.054 1.422-.08 2.976-.08 4.66l1.502-3.95zm-4.92 30.28c.598-.66 1.063-1.125 1.394-1.395.33-.27.766-.405 1.306-.405.9 0 1.53.09 1.89.27.36.18.57.45.63.81.06.36.09 1.05.09 2.07 0 .72-.57 1.5-1.71 2.34-1.26.9-2.28 1.35-3.06 1.35h-2.7c-2.94 0-5.49-1.08-7.65-3.24-.96-.96-1.755-2.07-2.385-3.33-.63-1.26-1.065-2.55-1.304-3.87-.54-2.46-.81-5.82-.81-10.08l-.09-2.7.09-2.79v-5.22c-1.8-1.08-3.84-1.98-6.12-2.7-2.28-.72-4.5-1.08-6.66-1.08-.24 0-.6.72-1.08 2.16-.9 2.82-1.47 4.71-1.71 5.67l-1.35 4.41c-1.08 3.9-2.37 8.04-3.87 12.42-2.34 6.9-4.68 12.12-7.02 15.66-1.02 1.5-2.16 2.64-3.42 3.42-1.26.78-2.55 1.17-3.87 1.17-1.38 0-2.745-.375-4.095-1.125-1.35-.75-2.505-1.845-3.464-3.285-2.22-3.06-3.33-6.84-3.33-11.34 0-2.16.3-4.53.9-7.11.84-3.36 2.16-6.63 3.96-9.81 1.8-3.18 4.02-6 6.66-8.46 2.76-2.58 5.79-4.59 9.09-6.03 3.3-1.44 6.75-2.16 10.35-2.16 1.14-3.96 3.03-8.88 5.67-14.76 2.7-6.12 5.52-11.55 8.46-16.29 1.56-2.46 2.94-4.32 4.14-5.58 1.26-1.38 2.34-2.07 3.24-2.07 1.2 0 1.8 1.05 1.8 3.15 0 .54-.06 1.41-.18 2.61l-.36 2.34-1.89 58.68c-.12 2.4.3 4.35 1.26 5.85s2.22 2.25 3.78 2.25c.78 0 1.41-.15 1.89-.45.48-.3.99-.75 1.53-1.35zm-45.63-23.49c-1.8 1.98-3.33 4.26-4.59 6.84-1.26 2.58-2.222 5.25-2.88 8.01-.782 3.42-1.17 6.39-1.17 8.91 0 2.04.208 3.72.63 5.04.54 2.1 1.228 3.51 2.07 4.23.478.48 1.08.72 1.8.72 1.08 0 2.218-.66 3.42-1.98.958-1.08 1.768-2.22 2.43-3.42 2.34-4.14 5.04-10.59 8.1-19.35 2.098-5.94 3.748-11.22 4.95-15.84-5.882 0-10.8 2.28-14.76 6.84zm32.31-36.27c-1.322 1.98-3.122 5.1-5.4 9.36-2.402 4.44-4.32 8.37-5.76 11.79-.72 1.68-1.292 3.3-1.71 4.86 2.52.24 4.798.6 6.84 1.08 1.8.42 3.568 1.17 5.31 2.25l2.07-31.14c-.242.18-.692.78-1.35 1.8z" id="path-1" class="cls-2" fill-rule="evenodd"/></svg>