<svg xmlns="http://www.w3.org/2000/svg" viewBox="0 0 94.2 87.6"><path d="M.5 67.5c0-.1 0-.2.1-.2 1.7-5.1 1.2-4 2-6 4.9-12.2 13-20.8 26.6-22.7 2.4-.3 2.8-1.7 3.5-3.5C36 25.9 40.1 17 45.1 8.5c1.7-2.9 3.7-5.7 6.2-8 1.2-1 3.1-.5 3.3 1.1.3 1.3.1 2.7 0 4-1.1 20-1.5 39.9-2.1 59.9-.1 1.8-.2 3.7.5 5.4 1.3 3.2 3.6 4.2 6.2 3 .7-.3 1.4-.8 1.9-1.4 1.3-1.3 2.9-2.1 4.4-.6 1.3 1.2.2 3.7-1.9 4.9-3 1.7-8.8.9-11.7-1.7-2.4-2-3.7-4.6-4.4-7.6-1.3-5.6-.8-11.3-.9-16.9 0-4.4-.1-4.5-4.2-6.1-7.8-3.1-8.7-2.6-11.1 5.2-2.4 7.8-4.5 15.7-7.6 23.2-1.4 3.4-2.8 6.8-4.8 9.8-4.3 6.5-11.1 6.5-15.3-.1-1.2-1.8-2.2-3.5-2.9-5.8 0-.2-.1-.4-.1-.6 0 .6-1.2-5.4-.1-8.7zm28.6-25c-3.9-.1-7.1 1.2-10 3.1-8.4 5.7-14.6 21.7-12.2 31.6.5 2.2.8 5 3.6 5.6 3 .6 4.5-1.9 5.7-4 6.1-11.1 10.2-23.1 13.3-35.4 0-.1-.2-.3-.4-.9zm17.6-3.1c.9-5.1 1.5-13.9 1.5-20.2 0-2.1-2.7-2.8-3.8-1-3.4 6-6.6 11.9-8.9 18.4-.4 1.2.3 2.5 1.6 2.7 2.5.4 4.7.8 6.9 1.7 1.2.5 2.5-.3 2.7-1.6zM61.4 54.8c1.7-3.7 2.9-6.6 4.4-9.4 2.2-4.2 4.7-5.6 8.3-4.9 3.4.7 5.4 3.2 6 7.6.3 2.5.5 5 .2 7.5-.2 1.3 0 2.7.1 4 .3 2 1.6 2.4 3.3 1.7 1.9-.8 3.2-2.3 4.4-4 1.7-2.2 3.3-4.5 4.9-6.6 1.3.4 1.2 1.1 1.2 1.7-.1 5-6.1 13.1-10.7 14.6-4.8 1.6-9.2-1.4-9.5-6.4-.2-3.5.1-7 0-10.5-.1-2.1.2-4.9-2.3-5.5-2.3-.5-3 2.2-4 3.8-2.5 4.5-4 9.5-5.6 14.4-.4 1.1-.7 2.2-1 3.3-.3 1.4-1.4 1.8-2.6 1.8-1.6 0-1.8-1.2-1.8-2.4-.4-14.7-1.8-29.5 1.3-44.2.8-3.6 2.1-7 4.5-9.9.8-1 1.7-2.1 2.8-2.8 2.6-1.8 4.5-1.2 5.2 1.8.4 1.6.5 3.3.4 4.9-.2 11.2-3.4 21.7-8.4 31.6-1.1 2.3-2.2 4.4-1.1 7.9zm-.3-10.3c3.1-6.8 5.9-13.7 6.9-21.1.2-2 .1-4 0-5.9-.1-1.6-.9-3-2.7-3.1-1.7-.1-2 1.4-2.5 2.6-.9 2.4-1 4.9-1.4 7.3-.8 6.7-.6 13.4-.3 20.2zM88.7 24.7c-1.3 1.8-3.7 1.1-4.8 2.8-.3 1.8 1.8 3.2.8 5.4-1.9-.7-1.8-3.1-3.5-3.9-1.9.3-2.6 2.9-4.9 2.9.2-2.2 2.3-3 2.5-4.9-.4-1.9-3.3-1.5-3.7-3.5 1.9-1.2 3.5 1.4 5.2.3 1.5-1 .8-3.4 2.3-4.8 1.7 1.4.2 3.2.8 4.8 1.4 1.6 3.5-.6 5.3.9z"/></svg>