<svg xmlns="http://www.w3.org/2000/svg" xmlns:xlink="http://www.w3.org/1999/xlink" preserveAspectRatio="xMidYMid" width="110" height="98" viewBox="0 0 110 98">
  <defs>
    <style>

      .cls-2 {
        fill: #000000;
      }
    </style>
  </defs>
  <path d="M109.398,64.631 C105.390,78.699 99.848,81.769 95.329,81.769 C88.594,81.769 83.052,78.188 85.183,60.709 C85.183,60.709 85.183,60.453 85.183,60.453 C86.974,46.129 88.253,42.037 83.222,42.037 C78.874,42.037 70.944,46.811 67.705,72.901 C67.705,73.072 67.705,73.242 67.619,73.413 C67.619,73.413 67.364,75.289 67.364,75.289 C66.852,81.513 63.868,82.024 60.372,81.683 C57.644,81.428 59.008,80.234 59.775,73.924 C60.543,67.274 63.271,46.726 64.550,36.068 C64.891,33.340 65.317,30.867 65.744,28.650 C55.597,28.821 43.234,26.519 28.825,20.210 C5.549,10.063 -0.590,24.814 4.355,30.526 C5.804,32.146 8.874,31.805 10.323,27.968 C11.602,24.302 14.672,25.410 15.439,27.798 C16.803,31.890 8.107,39.138 1.968,32.146 C-4.512,24.728 5.122,6.823 30.189,17.907 C44.428,24.217 56.450,26.434 66.255,26.178 C70.774,5.289 79.982,0.002 88.849,0.002 C107.181,0.002 100.616,23.620 73.332,27.968 C72.906,30.441 72.650,33.084 72.223,36.068 C71.627,40.843 70.944,46.129 70.177,51.927 C74.611,41.696 80.409,39.393 84.331,39.393 C91.066,39.393 94.988,42.889 92.857,60.453 C92.857,60.453 92.857,60.709 92.857,60.709 C91.066,74.948 91.322,79.040 96.438,79.040 C99.678,79.040 103.770,76.397 107.010,64.034 C108.119,59.942 110.591,60.283 109.398,64.631 ZM88.082,2.731 C80.835,2.731 76.828,8.017 73.758,25.496 C96.949,21.488 102.662,2.731 88.082,2.731 ZM45.110,56.361 C45.110,56.361 45.451,56.190 45.451,56.190 C46.474,45.788 45.451,42.037 39.142,42.037 C34.708,42.037 30.530,42.633 29.933,47.152 C29.763,48.687 30.957,50.136 33.173,50.733 C36.072,51.586 34.793,57.554 30.189,57.554 C26.011,57.554 24.818,53.888 25.159,51.074 C25.841,45.106 31.553,39.393 40.335,39.393 C49.117,39.393 54.915,42.292 52.869,59.174 C52.869,59.430 52.698,59.771 52.698,60.027 C52.613,61.220 52.443,62.499 52.272,63.864 C52.272,63.864 51.675,68.979 51.675,68.979 C49.885,83.303 50.140,95.155 65.488,95.155 C73.246,95.155 81.517,87.822 83.137,85.350 C84.672,83.047 86.888,83.559 85.183,86.117 C82.455,90.124 73.076,97.883 64.379,97.883 C49.970,97.883 43.831,89.783 43.575,76.738 C40.591,79.722 36.925,81.769 33.003,81.769 C28.058,81.769 22.089,78.699 22.771,72.901 C23.539,66.848 29.763,61.903 45.110,56.361 ZM34.623,79.296 C41.273,79.296 43.405,73.498 45.025,60.453 C45.025,60.453 45.281,58.236 45.281,58.236 C45.195,58.322 45.110,58.322 45.025,58.322 C34.879,62.244 30.274,67.359 29.678,72.646 C29.081,77.164 31.980,79.296 34.623,79.296 Z" id="path-1" class="cls-2" fill-rule="evenodd"/>
</svg>
