<?xml version="1.0" encoding="utf-8"?>
<!-- Generator: Adobe Illustrator 18.1.1, SVG Export Plug-In . SVG Version: 6.00 Build 0)  -->
<!DOCTYPE svg PUBLIC "-//W3C//DTD SVG 1.1//EN" "http://www.w3.org/Graphics/SVG/1.1/DTD/svg11.dtd">
<svg version="1.1" id="Layer_1" xmlns="http://www.w3.org/2000/svg" xmlns:xlink="http://www.w3.org/1999/xlink" x="0px" y="0px"
	 viewBox="0 0 143.4 143.4" enable-background="new 0 0 143.4 143.4" xml:space="preserve">
<g>
	<path d="M0,71.3C0.1,31.7,32.3-0.1,72.2,0c39.6,0.1,71.3,32.4,71.2,72.4c-0.1,39.6-32.4,71.2-72.5,71C31.6,143.2-0.1,111,0,71.3z
		 M75.7,21.7c-0.9-0.5-1.6-0.5-2.2-0.2c-2.5,1.5-4,4-5.5,6.3c-5.5,8.8-9.8,18.2-13.3,27.9c-0.8,2.2-1.6,3.6-4.3,3.9
		c-14.2,1.6-26.6,15.2-27.8,32.2c-0.3,4.8,0.8,9.3,4,13c3.8,4.5,9.1,4.4,12.9-0.1c1.9-2.3,3.2-5.1,4.4-7.8
		c3.8-8.5,6.1-17.6,8.9-26.5c2.5-8.2,3-8.5,11-5.5c0.3,0.1,0.6,0.2,0.9,0.3c2.7,0.9,4.1,2.4,3.8,5.5c-0.3,3.3-0.2,6.7,0,10
		c0.2,3.8,0.4,7.7,2.2,11.2c2.6,5.1,8.4,7.6,13.5,5.9c1.6-0.6,3-1.6,3.1-3.5c0-0.7-0.1-1.4-0.7-1.7c-1.7-0.8-2.8,0.2-3.9,1.2
		c-0.2,0.2-0.5,0.5-0.8,0.6c-2.7,1.7-5.1,1.1-6.8-1.6c-1.3-2.1-1.2-4.5-1.1-6.8c0.5-19.5,1-38.9,2-58.4
		C76.1,25.7,76.6,23.5,75.7,21.7z M86.4,75.3c-0.7-3.7-0.1-5.9,1.1-8.2c3.2-5.9,5.4-12.1,7-18.6c1.4-5.7,2.1-11.5,1.4-17.3
		c-0.4-3.7-2.5-4.6-5.5-2.3c-2,1.5-3.4,3.7-4.5,5.9c-2.4,4.9-3.3,10.1-3.6,15.4c-0.7,11.7-0.2,23.3,0,35c0,0.8-0.1,1.7,0.8,2.2
		c2.7-0.7,2.8-0.6,3.4-2.5c1.2-3.5,2.3-6.9,3.5-10.4c1.1-3,2.3-5.9,4.2-8.5c0.7-1,1.5-1.9,2.8-1.7c1.6,0.3,2,1.6,2.2,3
		c0.2,1.5,0.3,3,0.3,4.5c0,2.8-0.3,5.7,0,8.5c0.5,6.1,6.1,8.9,11.2,5.5c4-2.6,6.6-6.5,8.4-10.9c0.5-1.1,0.8-2.5-0.5-3.6
		c-4.3,3.2-5.2,10.4-12.1,10.2c-1.2-2.4-1.3-4.3-1-6.3c0.5-3.2,0.2-6.3-0.7-9.4c-1-3.8-4.9-6.1-8.5-5.1c-2.7,0.7-4,2.8-5.2,5
		C89.8,68.4,89,71.7,86.4,75.3z M113.2,42.9c-2.3,1.2-3.6-0.9-5.4-0.1c0.7,1.8,3.2,1.5,3.4,3.4c-0.2,1.8-2.3,2.6-2.1,4.7
		c1.9-0.7,2.5-2.6,4.3-2.9c1.6,0.7,1.5,2.9,3.2,3.6c1-1.9-1.5-3.3-1.1-4.3c1.5-2.5,3.9-1.6,4.9-3.4c-1.7-1-3.4,0.9-4.4,0
		c-1.5-1.7-0.2-3.4-1.5-4.9C114.1,40.5,113.6,41.9,113.2,42.9z"/>
	<path d="M52,63.4c-3.8,12.9-7.5,25.1-13.8,36.3c-1.2,2.1-2.8,4.6-5.7,4.2c-3-0.4-3.4-3.4-4-5.8C26,88.1,32.3,71.9,41,66.2
		C44,64.2,47.3,62.7,52,63.4z"/>
	<path d="M68.9,63.2c-4.5-1.8-8.2-2.8-12.6-3.2c3.1-10.2,8.3-18.7,13.8-27C70.6,43,69.4,52.7,68.9,63.2z"/>
	<path d="M86.5,65.1c-0.7-9.6-0.8-19.2,1.7-28.5c0.3-1.3,0.9-2.7,2.5-2.7c1.7,0,2.6,1.4,2.9,2.9c0.3,1.3,0.6,2.6,0.5,3.9
		C93.1,49.3,90.3,57.3,86.5,65.1z"/>
</g>
</svg>
