<?xml version="1.0" encoding="utf-8"?>
<!-- Generator: Adobe Illustrator 18.1.1, SVG Export Plug-In . SVG Version: 6.00 Build 0)  -->
<!DOCTYPE svg PUBLIC "-//W3C//DTD SVG 1.1//EN" "http://www.w3.org/Graphics/SVG/1.1/DTD/svg11.dtd">
<svg version="1.1" id="Layer_1" xmlns="http://www.w3.org/2000/svg" xmlns:xlink="http://www.w3.org/1999/xlink" x="0px" y="0px"
	 viewBox="0 0 135.2 114.3" enable-background="new 0 0 135.2 114.3" xml:space="preserve">
<g>
	<path d="M40.2,50.3c1.5-5.1,3.9-11.5,7.4-19.2c3.5-7.9,7.2-15,11-21.2c2-3.2,3.8-5.6,5.4-7.2C65.6,0.9,67,0,68.1,0
		c1.6,0,2.3,1.4,2.3,4.1c0,0.7-0.1,1.8-0.2,3.4l-0.5,3l-2.5,76.2c-0.2,3.1,0.4,5.6,1.6,7.6c1.2,1.9,2.9,2.9,4.9,2.9
		c1,0,1.8-0.2,2.5-0.6c0.6-0.4,1.3-1,2-1.8c0.8-0.9,1.4-1.5,1.8-1.8s1-0.5,1.7-0.5c1.2,0,2,0.1,2.5,0.3c0.5,0.2,0.7,0.6,0.8,1.1
		c0.1,0.5,0.1,1.4,0.1,2.7c0,0.9-0.7,1.9-2.2,3c-1.6,1.2-3,1.8-4,1.8h-3.5c-3.8,0-7.1-1.4-9.9-4.2c-1.2-1.2-2.3-2.7-3.1-4.3
		c-0.8-1.6-1.4-3.3-1.7-5c-0.7-3.2-1.1-7.6-1.1-13.1l-0.1-3.5l0.1-3.6v-6.8c-2.3-1.4-5-2.6-7.9-3.5c-3-0.9-5.8-1.4-8.7-1.4
		c-0.3,0-0.8,0.9-1.4,2.8c-1.2,3.7-1.9,6.1-2.2,7.4l-1.8,5.7c-1.4,5.1-3.1,10.4-5,16.1c-3,9-6.1,15.7-9.1,20.3
		c-1.3,1.9-2.8,3.4-4.4,4.4c-1.6,1-3.3,1.5-5,1.5c-1.8,0-3.6-0.5-5.3-1.5c-1.8-1-3.3-2.4-4.5-4.3c-2.9-4-4.3-8.9-4.3-14.7
		c0-2.8,0.4-5.9,1.2-9.2C2.3,80.3,4,76,6.3,71.9c2.3-4.1,5.2-7.8,8.6-11c3.6-3.3,7.5-6,11.8-7.8C31.1,51.2,35.5,50.3,40.2,50.3z
		 M8.7,101.8c0.7,2.7,1.6,4.6,2.7,5.5c0.6,0.6,1.4,0.9,2.3,0.9c1.4,0,2.9-0.9,4.4-2.6c1.2-1.4,2.3-2.9,3.2-4.4
		c3-5.4,6.5-13.8,10.5-25.1c2.7-7.7,4.9-14.6,6.4-20.6c-7.6,0-14,3-19.2,8.9c-2.3,2.6-4.3,5.5-6,8.9c-1.6,3.4-2.9,6.8-3.7,10.4
		c-1,4.4-1.5,8.3-1.5,11.6C7.8,97.9,8.1,100.1,8.7,101.8z M60.1,55.4L62.8,15c-0.3,0.2-0.9,1-1.8,2.3c-1.7,2.6-4.1,6.6-7,12.2
		c-3.1,5.8-5.6,10.9-7.5,15.3c-0.9,2.2-1.7,4.3-2.2,6.3c3.3,0.3,6.2,0.8,8.9,1.4C55.5,53,57.8,54,60.1,55.4z"/>
	<path d="M129,62.6l0.1,7.5c-2.4,4.7-4.8,8.4-7.1,11c-3.8,4.1-7.3,6-10.6,5.6c-2.8-0.3-4.9-1-6.2-2.1c-1.3-1.1-2.2-2.6-2.6-4.6
		c-0.3-1.1-0.4-2.5-0.4-4.1c0-1,0-1.8,0.1-2.4c0.1-2.2,0.2-4.1,0.2-5.6c0-4.7-0.3-7.8-1-9.4c-0.5-1.2-1.3-1.8-2.2-1.8
		c-1,0-2,0.7-3,2.1c-1.8,2.5-3.7,6.3-5.6,11.4c-1.3,3.4-2.8,7.7-4.4,12.9c-0.6,2.1-1,3.4-1,3.9c-1,0.5-2.2,0.7-3.6,0.7
		c-0.5,0-1.2-0.1-1.8-0.2l-0.5-27.7v-5.1c0-8.5,0.3-15.4,1-20.8c1.2-8.6,3.4-15.1,6.8-19.5c1.9-2.7,3.6-4.3,5.1-4.9
		c1-0.4,1.8-0.6,2.6-0.6c1.6,0,2.7,1.1,3.3,3.2c0.5,2.1,0.7,4.3,0.7,6.7c0,2.7-0.3,6-0.8,10c-1.1,7.6-3.3,15.4-6.5,23.4
		c-1.6,3.9-3.5,7.8-5.7,11.7c-0.2,0.3-0.3,1.6-0.3,4l-0.1,1.3l0.1,1.3v1.6c1-1.9,2.4-5,4.1-9.1c1.5-3.8,3.1-6.6,4.7-8.6
		c1.6-1.9,3.8-2.9,6.5-2.9c2,0,3.8,0.6,5.6,1.7c1.7,1.2,3,2.7,3.6,4.5c0.8,2.3,1.1,5.8,1.1,10.4c0,0.9,0,1.5-0.1,2
		c-0.1,0.5-0.1,1.2-0.2,1.9c-0.1,0.7-0.1,1.5-0.1,2.3c0,0.5,0.1,1.2,0.2,2.2c0.1,0.8,0.4,1.8,1,3c1.7,0,3.2-0.4,4.4-1.1
		c1.2-0.8,2.5-1.9,3.7-3.5c1.5-1.9,2.8-3.7,3.8-5.2C125.1,67.5,126.8,65.2,129,62.6z M91.3,17.3c-1-0.2-1.9,0.5-2.6,2.2
		c-1.3,3.3-2.2,8.7-2.8,16.1c-0.5,6.5-0.7,12.9-0.7,19.1c-0.1,1.8-0.1,3.9-0.1,6.1l2-5.1c2.3-5.8,4.3-11.8,6.1-17.9
		c1.4-4.9,2.1-9.1,2.1-12.6c0-1.6-0.1-3-0.4-4.1C94.2,19,93,17.7,91.3,17.3z"/>
	<path d="M117.7,39.4l5-6.4l-6.4-3.4l0.8-1.9l7.1,2.5l1.7-7.7l2.1,0.2l-0.6,7.7l7.4-1.1l0.4,2.1l-7.5,2.1l2.9,7.1l-1.9,1.1l-3.7-6.5
		l-5.8,5.6L117.7,39.4z"/>
</g>
</svg>
