<?xml version="1.0" encoding="utf-8"?>
<!-- Generator: Adobe Illustrator 18.1.1, SVG Export Plug-In . SVG Version: 6.00 Build 0)  -->
<!DOCTYPE svg PUBLIC "-//W3C//DTD SVG 1.1//EN" "http://www.w3.org/Graphics/SVG/1.1/DTD/svg11.dtd">
<svg version="1.1" id="Layer_1" xmlns="http://www.w3.org/2000/svg" xmlns:xlink="http://www.w3.org/1999/xlink" x="0px" y="0px"
	 viewBox="0 0 94.2 87.6" enable-background="new 0 0 94.2 87.6" xml:space="preserve">
<path d="M0.5,67.5c0-0.1,0-0.2,0.1-0.2c1.7-5.1,1.2-4,2-6c4.9-12.2,13-20.8,26.6-22.7c2.4-0.3,2.8-1.7,3.5-3.5
	c3.3-9.2,7.4-18.1,12.4-26.6c1.7-2.9,3.7-5.7,6.2-8c1.2-1,3.1-0.5,3.3,1.1c0.3,1.3,0.1,2.7,0,4c-1.1,20-1.5,39.9-2.1,59.9
	c-0.1,1.8-0.2,3.7,0.5,5.4c1.3,3.2,3.6,4.2,6.2,3c0.7-0.3,1.4-0.8,1.9-1.4c1.3-1.3,2.9-2.1,4.4-0.6c1.3,1.2,0.2,3.7-1.9,4.9
	c-3,1.7-8.8,0.9-11.7-1.7c-2.4-2-3.7-4.6-4.4-7.6c-1.3-5.6-0.8-11.3-0.9-16.9c0-4.4-0.1-4.5-4.2-6.1c-7.8-3.1-8.7-2.6-11.1,5.2
	c-2.4,7.8-4.5,15.7-7.6,23.2c-1.4,3.4-2.8,6.8-4.8,9.8c-4.3,6.5-11.1,6.5-15.3-0.1c-1.2-1.8-2.2-3.5-2.9-5.8c0-0.2-0.1-0.4-0.1-0.6
	C0.6,76.8-0.6,70.8,0.5,67.5z M29.1,42.5c-3.9-0.1-7.1,1.2-10,3.1C10.7,51.3,4.5,67.3,6.9,77.2c0.5,2.2,0.8,5,3.6,5.6
	c3,0.6,4.5-1.9,5.7-4c6.1-11.1,10.2-23.1,13.3-35.4C29.5,43.3,29.3,43.1,29.1,42.5z M46.7,39.4c0.9-5.1,1.5-13.9,1.5-20.2
	c0-2.1-2.7-2.8-3.8-1c-3.4,6-6.6,11.9-8.9,18.4c-0.4,1.2,0.3,2.5,1.6,2.7c2.5,0.4,4.7,0.8,6.9,1.7C45.2,41.5,46.5,40.7,46.7,39.4z"
	/>
<path d="M61.4,54.8c1.7-3.7,2.9-6.6,4.4-9.4c2.2-4.2,4.7-5.6,8.3-4.9c3.4,0.7,5.4,3.2,6,7.6c0.3,2.5,0.5,5,0.2,7.5
	c-0.2,1.3,0,2.7,0.1,4c0.3,2,1.6,2.4,3.3,1.7c1.9-0.8,3.2-2.3,4.4-4c1.7-2.2,3.3-4.5,4.9-6.6c1.3,0.4,1.2,1.1,1.2,1.7
	c-0.1,5-6.1,13.1-10.7,14.6c-4.8,1.6-9.2-1.4-9.5-6.4c-0.2-3.5,0.1-7,0-10.5c-0.1-2.1,0.2-4.9-2.3-5.5c-2.3-0.5-3,2.2-4,3.8
	c-2.5,4.5-4,9.5-5.6,14.4c-0.4,1.1-0.7,2.2-1,3.3c-0.3,1.4-1.4,1.8-2.6,1.8c-1.6,0-1.8-1.2-1.8-2.4C56.3,50.8,54.9,36,58,21.3
	c0.8-3.6,2.1-7,4.5-9.9c0.8-1,1.7-2.1,2.8-2.8c2.6-1.8,4.5-1.2,5.2,1.8c0.4,1.6,0.5,3.3,0.4,4.9c-0.2,11.2-3.4,21.7-8.4,31.6
	C61.4,49.2,60.3,51.3,61.4,54.8z M61.1,44.5c3.1-6.8,5.9-13.7,6.9-21.1c0.2-2,0.1-4,0-5.9c-0.1-1.6-0.9-3-2.7-3.1
	c-1.7-0.1-2,1.4-2.5,2.6c-0.9,2.4-1,4.9-1.4,7.3C60.6,31,60.8,37.7,61.1,44.5z"/>
<path d="M88.7,24.7c-1.3,1.8-3.7,1.1-4.8,2.8c-0.3,1.8,1.8,3.2,0.8,5.4c-1.9-0.7-1.8-3.1-3.5-3.9c-1.9,0.3-2.6,2.9-4.9,2.9
	c0.2-2.2,2.3-3,2.5-4.9c-0.4-1.9-3.3-1.5-3.7-3.5c1.9-1.2,3.5,1.4,5.2,0.3c1.5-1,0.8-3.4,2.3-4.8c1.7,1.4,0.2,3.2,0.8,4.8
	C84.8,25.4,86.9,23.2,88.7,24.7z"/>
</svg>
