<svg xmlns="http://www.w3.org/2000/svg" xmlns:xlink="http://www.w3.org/1999/xlink" preserveAspectRatio="xMidYMid" width="100" height="89" viewBox="0 0 100 89">
  <defs>
    <style>

      .cls-2 {
        fill: #ffffff;
      }
    </style>
  </defs>
  <path d="M99.133,24.133 C99.133,24.133 93.350,25.785 93.350,25.785 C93.350,25.785 95.593,31.214 95.593,31.214 C95.593,31.214 94.117,32.099 94.117,32.099 C94.117,32.099 91.285,27.083 91.285,27.083 C91.285,27.083 86.800,31.391 86.800,31.391 C86.800,31.391 85.620,30.329 85.620,30.329 C85.620,30.329 89.455,25.431 89.455,25.431 C89.455,25.431 84.558,22.775 84.558,22.775 C84.558,22.775 85.207,21.300 85.207,21.300 C85.207,21.300 90.695,23.188 90.695,23.188 C90.695,23.188 91.993,17.287 91.993,17.287 C91.993,17.287 93.645,17.405 93.645,17.405 C93.645,17.405 93.173,23.365 93.173,23.365 C93.173,23.365 98.838,22.539 98.838,22.539 C98.838,22.539 99.133,24.133 99.133,24.133 ZM84.414,60.983 C85.729,60.983 86.863,60.694 87.811,60.114 C88.759,59.535 89.707,58.640 90.655,57.428 C91.812,55.954 92.788,54.611 93.578,53.399 C94.526,51.977 95.841,50.239 97.528,48.185 C97.528,48.185 97.607,53.952 97.607,53.952 C95.762,57.586 93.945,60.404 92.156,62.405 C89.258,65.565 86.547,67.014 84.019,66.750 C81.858,66.540 80.266,66.013 79.239,65.170 C78.212,64.328 77.541,63.143 77.225,61.615 C77.013,60.773 76.909,59.719 76.909,58.455 C76.909,57.665 76.934,57.060 76.988,56.638 C77.092,54.953 77.146,53.505 77.146,52.293 C77.146,48.712 76.881,46.289 76.356,45.025 C75.933,44.077 75.380,43.603 74.697,43.603 C73.907,43.603 73.142,44.130 72.406,45.183 C70.984,47.132 69.534,50.055 68.061,53.952 C67.059,56.533 65.928,59.851 64.664,63.906 C64.190,65.539 63.925,66.540 63.874,66.908 C63.135,67.277 62.215,67.461 61.109,67.461 C60.686,67.461 60.212,67.408 59.687,67.303 C59.687,67.303 59.292,45.973 59.292,45.973 C59.292,45.973 59.292,42.023 59.292,42.023 C59.292,35.493 59.556,30.147 60.082,25.986 C60.976,19.350 62.714,14.347 65.296,10.976 C66.769,8.922 68.086,7.658 69.246,7.184 C69.982,6.868 70.640,6.710 71.221,6.710 C72.485,6.710 73.326,7.527 73.749,9.159 C74.116,10.739 74.302,12.451 74.302,14.294 C74.302,16.348 74.090,18.903 73.670,21.957 C72.826,27.803 71.167,33.807 68.693,39.969 C67.480,42.971 66.007,45.973 64.269,48.975 C64.111,49.186 64.032,50.213 64.032,52.056 C64.032,52.056 63.953,53.083 63.953,53.083 C63.953,53.083 64.032,54.110 64.032,54.110 C64.032,54.110 64.032,55.374 64.032,55.374 C64.822,53.900 65.874,51.556 67.192,48.343 C68.349,45.447 69.562,43.235 70.826,41.707 C72.090,40.233 73.749,39.495 75.803,39.495 C77.329,39.495 78.765,39.943 80.108,40.838 C81.451,41.734 82.385,42.892 82.913,44.314 C83.491,46.105 83.782,48.765 83.782,52.293 C83.782,52.978 83.754,53.478 83.703,53.794 C83.649,54.216 83.596,54.702 83.545,55.255 C83.491,55.808 83.466,56.401 83.466,57.033 C83.466,57.402 83.517,57.955 83.624,58.692 C83.675,59.324 83.940,60.088 84.414,60.983 ZM65.217,42.813 C67.006,38.337 68.560,33.755 69.878,29.067 C70.930,25.328 71.458,22.089 71.458,19.350 C71.458,18.086 71.351,17.033 71.142,16.190 C70.719,14.610 69.824,13.662 68.456,13.346 C67.666,13.188 67.006,13.741 66.481,15.005 C65.479,17.533 64.768,21.668 64.348,27.408 C63.978,32.412 63.795,37.310 63.795,42.102 C63.741,43.524 63.716,45.078 63.716,46.763 C63.716,46.763 65.217,42.813 65.217,42.813 ZM60.296,73.093 C60.895,72.432 61.360,71.968 61.691,71.698 C62.020,71.428 62.456,71.293 62.996,71.293 C63.896,71.293 64.526,71.383 64.886,71.563 C65.246,71.743 65.455,72.013 65.516,72.373 C65.575,72.733 65.606,73.422 65.606,74.443 C65.606,75.163 65.035,75.942 63.896,76.783 C62.636,77.683 61.615,78.133 60.836,78.133 C60.836,78.133 58.136,78.133 58.136,78.133 C55.195,78.133 52.646,77.053 50.486,74.893 C49.525,73.933 48.731,72.823 48.101,71.563 C47.471,70.303 47.035,69.013 46.796,67.693 C46.256,65.233 45.986,61.874 45.986,57.613 C45.986,57.613 45.896,54.913 45.896,54.913 C45.896,54.913 45.986,52.123 45.986,52.123 C45.986,52.123 45.986,46.903 45.986,46.903 C44.186,45.823 42.145,44.923 39.866,44.203 C37.585,43.483 35.366,43.123 33.206,43.123 C32.965,43.123 32.605,43.843 32.126,45.283 C31.226,48.104 30.655,49.994 30.416,50.953 C30.416,50.953 29.066,55.363 29.066,55.363 C27.986,59.264 26.695,63.404 25.196,67.783 C22.856,74.682 20.516,79.902 18.176,83.443 C17.155,84.942 16.016,86.083 14.756,86.863 C13.496,87.642 12.205,88.033 10.886,88.033 C9.505,88.033 8.141,87.658 6.791,86.908 C5.441,86.157 4.285,85.063 3.326,83.623 C1.105,80.563 -0.004,76.783 -0.004,72.283 C-0.004,70.123 0.295,67.753 0.896,65.173 C1.735,61.813 3.056,58.544 4.856,55.363 C6.656,52.183 8.875,49.364 11.516,46.903 C14.275,44.324 17.305,42.313 20.606,40.873 C23.905,39.433 27.356,38.713 30.956,38.713 C32.095,34.753 33.985,29.834 36.626,23.953 C39.326,17.833 42.145,12.403 45.086,7.663 C46.645,5.203 48.025,3.343 49.226,2.083 C50.486,0.703 51.566,0.013 52.466,0.013 C53.665,0.013 54.266,1.063 54.266,3.163 C54.266,3.703 54.205,4.573 54.086,5.773 C54.086,5.773 53.726,8.113 53.726,8.113 C53.726,8.113 51.836,66.793 51.836,66.793 C51.715,69.193 52.135,71.143 53.096,72.643 C54.055,74.142 55.315,74.893 56.876,74.893 C57.655,74.893 58.285,74.743 58.766,74.443 C59.245,74.142 59.756,73.692 60.296,73.093 ZM14.666,49.603 C12.866,51.583 11.336,53.864 10.076,56.443 C8.816,59.023 7.855,61.694 7.196,64.453 C6.415,67.873 6.026,70.843 6.026,73.363 C6.026,75.402 6.235,77.083 6.656,78.403 C7.196,80.503 7.885,81.913 8.726,82.633 C9.205,83.113 9.806,83.353 10.526,83.353 C11.606,83.353 12.745,82.692 13.946,81.373 C14.905,80.293 15.715,79.153 16.376,77.953 C18.716,73.813 21.416,67.364 24.476,58.603 C26.575,52.663 28.225,47.384 29.426,42.763 C23.545,42.763 18.626,45.044 14.666,49.603 ZM46.976,13.333 C45.655,15.313 43.855,18.433 41.576,22.693 C39.175,27.134 37.256,31.063 35.816,34.483 C35.096,36.163 34.525,37.783 34.106,39.343 C36.626,39.583 38.905,39.943 40.946,40.423 C42.746,40.843 44.515,41.593 46.256,42.673 C46.256,42.673 48.326,11.533 48.326,11.533 C48.085,11.713 47.635,12.313 46.976,13.333 Z" id="path-1" class="cls-2" fill-rule="evenodd"/>
</svg>
